<?xml version="1.0" ?><svg height="32" id="svg17515" version="1.1" viewBox="0 0 32 32.000001" width="32" xmlns="http://www.w3.org/2000/svg" xmlns:cc="http://creativecommons.org/ns#" xmlns:dc="http://purl.org/dc/elements/1.1/" xmlns:inkscape="http://www.inkscape.org/namespaces/inkscape" xmlns:rdf="http://www.w3.org/1999/02/22-rdf-syntax-ns#" xmlns:sodipodi="http://sodipodi.sourceforge.net/DTD/sodipodi-0.dtd" xmlns:svg="http://www.w3.org/2000/svg"><defs id="defs17517"><clipPath clipPathUnits="userSpaceOnUse" id="clipPath32617-9-8-8-9"><circle cx="-64.623535" cy="50.047192" id="path32619-2-3-5-1" r="38.553814" style="fill:#4bb7c0;fill-opacity:1;stroke:none" transform="matrix(9.3443438,0,0,9.3443438,-627.91229,-5859.5225)"/></clipPath><clipPath clipPathUnits="userSpaceOnUse" id="clipPath19550"><circle cx="-64.623535" cy="50.047192" id="circle19552" r="38.553814" style="fill:#4bb7c0;fill-opacity:1;stroke:none" transform="matrix(9.3443438,0,0,9.3443438,-627.91229,-5859.5225)"/></clipPath></defs><g id="layer1" transform="translate(0,-1020.3622)"><g id="g41037" style="display:inline" transform="translate(731.19243,120.01425)"><path d="m -714.36314,924.77165 c -0.83854,0.2974 -1.11091,1.6992 -0.48403,2.3475 0.62688,0.6482 1.64325,0.6482 2.27012,0 0.62688,-0.6483 1.13507,-3.5213 1.13507,-3.5213 -0.0247,0.4563 -2.31781,0.9597 -2.92116,1.1738 z" id="path23949" style="opacity:1;fill:#88b03c;fill-opacity:1;stroke:none;stroke-width:1;stroke-linecap:round;stroke-linejoin:round;stroke-miterlimit:4;stroke-dasharray:none;stroke-opacity:1"/><path d="m -716.02171,921.02155 c 0.83854,0.2974 1.11091,1.6992 0.48403,2.3475 -0.62688,0.6482 -1.64325,0.6482 -2.27012,0 -0.62688,-0.6483 -1.13507,-3.5213 -1.13507,-3.5213 0.0247,0.4563 2.31781,0.9597 2.92116,1.1738 z" id="path23951" style="opacity:1;fill:#88b03c;fill-opacity:1;stroke:none;stroke-width:1;stroke-linecap:round;stroke-linejoin:round;stroke-miterlimit:4;stroke-dasharray:none;stroke-opacity:1"/><path d="m -714.31836,924.75868 c -0.009,0.003 -0.0368,0.0108 -0.0449,0.0137 -0.83854,0.2974 -1.11126,1.69936 -0.48438,2.34766 0.15607,0.16138 0.33697,0.28031 0.5293,0.36133 z" id="path40925" style="color:#000000;font-style:normal;font-variant:normal;font-weight:normal;font-stretch:normal;font-size:medium;line-height:normal;font-family:sans-serif;text-indent:0;text-align:start;text-decoration:none;text-decoration-line:none;text-decoration-style:solid;text-decoration-color:#000000;letter-spacing:normal;word-spacing:normal;text-transform:none;direction:ltr;writing-mode:lr-tb;baseline-shift:baseline;text-anchor:start;white-space:normal;clip-rule:nonzero;display:inline;overflow:visible;visibility:visible;opacity:1;isolation:auto;mix-blend-mode:normal;color-interpolation:sRGB;color-interpolation-filters:linearRGB;solid-color:#000000;solid-opacity:1;fill:#81a53c;fill-opacity:1;fill-rule:evenodd;stroke:none;stroke-width:1px;stroke-linecap:butt;stroke-linejoin:miter;stroke-miterlimit:4;stroke-dasharray:none;stroke-dashoffset:0;stroke-opacity:1;color-rendering:auto;image-rendering:auto;shape-rendering:auto;text-rendering:auto;enable-background:accumulate"/><path d="m -716.06836,921.00868 0,2.72461 c 0.19324,-0.081 0.37453,-0.20123 0.53125,-0.36328 0.62688,-0.6483 0.35417,-2.05025 -0.48437,-2.34765 -0.008,-0.003 -0.0378,-0.0106 -0.0469,-0.0137 z" id="path40960" style="color:#000000;font-style:normal;font-variant:normal;font-weight:normal;font-stretch:normal;font-size:medium;line-height:normal;font-family:sans-serif;text-indent:0;text-align:start;text-decoration:none;text-decoration-line:none;text-decoration-style:solid;text-decoration-color:#000000;letter-spacing:normal;word-spacing:normal;text-transform:none;direction:ltr;writing-mode:lr-tb;baseline-shift:baseline;text-anchor:start;white-space:normal;clip-rule:nonzero;display:inline;overflow:visible;visibility:visible;opacity:1;isolation:auto;mix-blend-mode:normal;color-interpolation:sRGB;color-interpolation-filters:linearRGB;solid-color:#000000;solid-opacity:1;fill:#81a53c;fill-opacity:1;fill-rule:evenodd;stroke:none;stroke-width:1px;stroke-linecap:butt;stroke-linejoin:miter;stroke-miterlimit:4;stroke-dasharray:none;stroke-dashoffset:0;stroke-opacity:1;color-rendering:auto;image-rendering:auto;shape-rendering:auto;text-rendering:auto;enable-background:accumulate"/><path d="m -715.69243,917.09755 0,13 1,0 0,-13 z" id="path23944" style="color:#000000;font-style:normal;font-variant:normal;font-weight:normal;font-stretch:normal;font-size:medium;line-height:normal;font-family:sans-serif;text-indent:0;text-align:start;text-decoration:none;text-decoration-line:none;text-decoration-style:solid;text-decoration-color:#000000;letter-spacing:normal;word-spacing:normal;text-transform:none;direction:ltr;writing-mode:lr-tb;baseline-shift:baseline;text-anchor:start;white-space:normal;clip-rule:nonzero;display:inline;overflow:visible;visibility:visible;opacity:1;isolation:auto;mix-blend-mode:normal;color-interpolation:sRGB;color-interpolation-filters:linearRGB;solid-color:#000000;solid-opacity:1;fill:#88b03c;fill-opacity:1;fill-rule:evenodd;stroke:none;stroke-width:1px;stroke-linecap:butt;stroke-linejoin:miter;stroke-miterlimit:4;stroke-dasharray:none;stroke-dashoffset:0;stroke-opacity:1;color-rendering:auto;image-rendering:auto;shape-rendering:auto;text-rendering:auto;enable-background:accumulate"/><path d="m -715.69336,917.13955 0,0.7637 a 2.25,2.25 0 0 0 0.5,0.059 2.25,2.25 0 0 0 0.5,-0.059 l 0,-0.7637 z" id="path40920" style="opacity:1;fill:#81a53c;fill-opacity:1;stroke:none;stroke-width:1;stroke-linecap:round;stroke-linejoin:round;stroke-miterlimit:4;stroke-dasharray:none;stroke-opacity:1"/><path d="m -715.19243,902.59835 a 2.25,2.25 0 0 0 -2.24219,2.084 2.25,2.25 0 0 0 -3.0625,0.1133 2.25,2.25 0 0 0 -0.10937,3.0586 2.25,2.25 0 0 0 -2.08594,2.2441 2.25,2.25 0 0 0 2.08594,2.2422 2.25,2.25 0 0 0 0.10937,3.0605 2.25,2.25 0 0 0 3.0586,0.1114 2.25,2.25 0 0 0 2.24609,2.0859 2.25,2.25 0 0 0 2.24219,-2.084 2.25,2.25 0 0 0 3.06055,-0.1133 2.25,2.25 0 0 0 0.10937,-3.0586 2.25,2.25 0 0 0 2.08789,-2.2441 2.25,2.25 0 0 0 -2.08789,-2.2422 2.25,2.25 0 0 0 -0.10937,-3.0605 2.25,2.25 0 0 0 -3.0586,-0.1114 2.25,2.25 0 0 0 -2.24414,-2.0859 z" id="path23888" style="opacity:1;fill:#ffd158;fill-opacity:1;stroke:none;stroke-width:1;stroke-linecap:round;stroke-linejoin:round;stroke-miterlimit:4;stroke-dasharray:none;stroke-opacity:1"/><path d="m -712.69243,910.38947 a 2.5,2.5 0 0 1 -2.5,2.5 2.5,2.5 0 0 1 -2.5,-2.5 2.5,2.5 0 0 1 2.5,-2.5 2.5,2.5 0 0 1 2.5,2.5 z" id="path41014" style="opacity:1;fill:#ecc355;fill-opacity:1;stroke:none;stroke-width:0.99999994;stroke-linecap:round;stroke-linejoin:round;stroke-miterlimit:4;stroke-dasharray:none;stroke-opacity:1"/><path d="m -712.69243,910.09835 a 2.5,2.5 0 0 1 -2.5,2.5 2.5,2.5 0 0 1 -2.5,-2.5 2.5,2.5 0 0 1 2.5,-2.5 2.5,2.5 0 0 1 2.5,2.5 z" id="circle23905" style="opacity:1;fill:#cc8634;fill-opacity:1;stroke:none;stroke-width:0.99999994;stroke-linecap:round;stroke-linejoin:round;stroke-miterlimit:4;stroke-dasharray:none;stroke-opacity:1"/></g></g></svg>