<?xml version="1.0" encoding="UTF-8" standalone="no"?>
<!-- Created with Inkscape (http://www.inkscape.org/) -->

<svg
   width="64pt"
   height="64pt"
   viewBox="0 0 22.577778 22.577778"
   version="1.1"
   id="svg831"
   inkscape:version="1.1.2 (0a00cf5339, 2022-02-04)"
   sodipodi:docname="21 - Living Room.svg"
   inkscape:export-filename="/media/taufikramadhan/Data/Tr Design Studio/Project Design/TR Creative Design/Icon Design/Project Hiring/Icon Icons/024 - Real Estate And Building/5 - Send/3 - Flat/21 - Living Room.png"
   inkscape:export-xdpi="576"
   inkscape:export-ydpi="576"
   xmlns:inkscape="http://www.inkscape.org/namespaces/inkscape"
   xmlns:sodipodi="http://sodipodi.sourceforge.net/DTD/sodipodi-0.dtd"
   xmlns="http://www.w3.org/2000/svg"
   xmlns:svg="http://www.w3.org/2000/svg"
   xmlns:rdf="http://www.w3.org/1999/02/22-rdf-syntax-ns#"
   xmlns:cc="http://creativecommons.org/ns#"
   xmlns:dc="http://purl.org/dc/elements/1.1/">
  <defs
     id="defs825">
    <pattern
       id="EMFhbasepattern"
       patternUnits="userSpaceOnUse"
       width="6"
       height="6"
       x="0"
       y="0" />
    <pattern
       id="EMFhbasepattern-9"
       patternUnits="userSpaceOnUse"
       width="6"
       height="6"
       x="0"
       y="0" />
    <pattern
       id="EMFhbasepattern-0"
       patternUnits="userSpaceOnUse"
       width="6"
       height="6"
       x="0"
       y="0" />
    <pattern
       id="EMFhbasepattern-7"
       patternUnits="userSpaceOnUse"
       width="6"
       height="6"
       x="0"
       y="0" />
    <pattern
       id="EMFhbasepattern-2"
       patternUnits="userSpaceOnUse"
       width="6"
       height="6"
       x="0"
       y="0" />
    <pattern
       id="EMFhbasepattern-98"
       patternUnits="userSpaceOnUse"
       width="6"
       height="6"
       x="0"
       y="0" />
    <pattern
       id="EMFhbasepattern-6"
       patternUnits="userSpaceOnUse"
       width="6"
       height="6"
       x="0"
       y="0" />
    <pattern
       id="EMFhbasepattern-01"
       patternUnits="userSpaceOnUse"
       width="6"
       height="6"
       x="0"
       y="0" />
    <pattern
       id="EMFhbasepattern-07"
       patternUnits="userSpaceOnUse"
       width="6"
       height="6"
       x="0"
       y="0" />
    <pattern
       id="EMFhbasepattern-8"
       patternUnits="userSpaceOnUse"
       width="6"
       height="6"
       x="0"
       y="0" />
    <pattern
       id="EMFhbasepattern-4"
       patternUnits="userSpaceOnUse"
       width="6"
       height="6"
       x="0"
       y="0" />
    <pattern
       id="EMFhbasepattern-40"
       patternUnits="userSpaceOnUse"
       width="6"
       height="6"
       x="0"
       y="0" />
    <pattern
       id="EMFhbasepattern-08"
       patternUnits="userSpaceOnUse"
       width="6"
       height="6"
       x="0"
       y="0" />
    <pattern
       id="EMFhbasepattern-04"
       patternUnits="userSpaceOnUse"
       width="6"
       height="6"
       x="0"
       y="0" />
    <pattern
       id="EMFhbasepattern-014"
       patternUnits="userSpaceOnUse"
       width="6"
       height="6"
       x="0"
       y="0" />
    <pattern
       id="EMFhbasepattern-27"
       patternUnits="userSpaceOnUse"
       width="6"
       height="6"
       x="0"
       y="0" />
    <pattern
       id="EMFhbasepattern-09"
       patternUnits="userSpaceOnUse"
       width="6"
       height="6"
       x="0"
       y="0" />
    <pattern
       id="EMFhbasepattern-5"
       patternUnits="userSpaceOnUse"
       width="6"
       height="6"
       x="0"
       y="0" />
    <pattern
       id="EMFhbasepattern-018"
       patternUnits="userSpaceOnUse"
       width="6"
       height="6"
       x="0"
       y="0" />
  </defs>
  <sodipodi:namedview
     id="base"
     pagecolor="#ffffff"
     bordercolor="#666666"
     borderopacity="1.0"
     inkscape:pageopacity="0.0"
     inkscape:pageshadow="2"
     inkscape:zoom="2.9121094"
     inkscape:cx="42.580818"
     inkscape:cy="42.752515"
     inkscape:document-units="pt"
     inkscape:current-layer="layer1"
     showgrid="false"
     units="pt"
     inkscape:window-width="1366"
     inkscape:window-height="719"
     inkscape:window-x="0"
     inkscape:window-y="26"
     inkscape:window-maximized="1"
     inkscape:pagecheckerboard="true"
     inkscape:showpageshadow="false"
     inkscape:object-paths="true"
     inkscape:snap-intersection-paths="true"
     inkscape:snap-smooth-nodes="true"
     inkscape:snap-midpoints="true"
     showguides="true"
     inkscape:snap-bbox="true"
     inkscape:bbox-nodes="true"
     inkscape:snap-nodes="false"
     inkscape:snap-global="true"
     inkscape:snap-others="false">
    <inkscape:grid
       type="xygrid"
       id="grid1378" />
    <sodipodi:guide
       position="0.97013831,21.607643"
       orientation="78.000048,0"
       id="guide1380"
       inkscape:locked="false" />
    <sodipodi:guide
       position="0.97013831,0.97013129"
       orientation="0,78.000005"
       id="guide1382"
       inkscape:locked="false" />
    <sodipodi:guide
       position="21.607639,0.97013129"
       orientation="-78.000048,0"
       id="guide1384"
       inkscape:locked="false" />
    <sodipodi:guide
       position="21.607639,21.607643"
       orientation="0,-78.000005"
       id="guide1386"
       inkscape:locked="false" />
  </sodipodi:namedview>
  <metadata
     id="metadata828">
    <rdf:RDF>
      <cc:Work
         rdf:about="">
        <dc:format>image/svg+xml</dc:format>
        <dc:type
           rdf:resource="http://purl.org/dc/dcmitype/StillImage" />
      </cc:Work>
    </rdf:RDF>
  </metadata>
  <g
     inkscape:label="Icon"
     inkscape:groupmode="layer"
     id="layer1"
     transform="translate(0,-274.42223)">
    <g
       id="g442818"
       style="display:inline;stroke-width:0.794878"
       transform="matrix(1.2580542,0,0,1.2580542,0.6384277,-154.02798)">
      <path
         style="color:#000000;fill:#000000;stroke-width:0.794878;stroke-linecap:round;stroke-linejoin:round;stroke-miterlimit:1.5;-inkscape-stroke:none"
         d="m 9.7890625,344.24805 a 0.2645835,0.2645835 0 0 0 -0.2636719,0.26367 v 1.32226 c 0,0 -10e-4,0.82593 -0.2089843,1.79493 a 0.2645835,0.2645835 0 0 0 0.203125,0.31445 0.2645835,0.2645835 0 0 0 0.3144531,-0.20313 c 0.2209016,-1.02919 0.2207036,-1.90625 0.2207036,-1.90625 v -1.32226 a 0.2645835,0.2645835 0 0 0 -0.2656255,-0.26367 z"
         id="path5969" />
      <path
         style="color:#000000;fill:#e2f0fa;stroke-width:0.794878;stroke-linecap:round;stroke-linejoin:round;stroke-miterlimit:1.5;-inkscape-stroke:none"
         d="m 7.4082031,344.24805 a 0.26460996,0.26460996 0 0 0 -0.2636719,0.26367 v 10.31836 a 0.26460996,0.26460996 0 0 0 0.2636719,0.26562 h 7.9374999 a 0.26460996,0.26460996 0 0 0 0.265625,-0.26562 v -10.31836 a 0.26460996,0.26460996 0 0 0 -0.265625,-0.26367 z"
         id="path263277" />
      <path
         id="path407431"
         style="fill:#9ebed1;fill-opacity:1;stroke-width:3.00427;stroke-linecap:round;stroke-linejoin:round;stroke-miterlimit:1.5"
         d="m 43.151309,256.54083 -16.147403,1.9e-4 v 26.07704 h 16.141543 z"
         transform="matrix(0.26458334,0,0,0.26458334,0,280.06666)"
         sodipodi:nodetypes="ccccc" />
      <path
         style="color:#000000;fill:#fda35d;fill-opacity:1;stroke-width:0.794878;stroke-linecap:round;stroke-linejoin:round;stroke-miterlimit:1.5;-inkscape-stroke:none"
         d="m 7.4082031,350.06836 a 0.26460996,0.26460996 0 0 0 -0.2636719,0.26367 v 4.49805 a 0.26460996,0.26460996 0 0 0 0.2636719,0.26562 h 1.8515625 a 0.26460996,0.26460996 0 0 0 0.265625,-0.26562 v -0.79297 c 0,-1.34231 -0.2738104,-2.30757 -0.5527343,-2.93945 -0.278924,-0.63188 -0.5800782,-0.94922 -0.5800782,-0.94922 a 0.26460996,0.26460996 0 0 0 -0.1914062,-0.0801 z"
         id="path263283" />
      <path
         style="color:#000000;fill:#fda35d;stroke-width:0.794878;stroke-linecap:round;stroke-linejoin:round;stroke-miterlimit:1.5;-inkscape-stroke:none"
         d="m 14.552734,350.06836 a 0.26460996,0.26460996 0 0 0 -0.191406,0.0801 c 0,0 -0.301154,0.31734 -0.580078,0.94922 -0.278924,0.63188 -0.552734,1.59714 -0.552734,2.93945 v 0.79297 a 0.26460996,0.26460996 0 0 0 0.265625,0.26562 h 1.851562 a 0.26460996,0.26460996 0 0 0 0.265625,-0.26562 v -4.49805 a 0.26460996,0.26460996 0 0 0 -0.265625,-0.26367 z"
         id="path263289" />
      <path
         id="path401895"
         style="color:#000000;fill:#fd750d;fill-opacity:1;stroke-width:3.00427;stroke-linecap:round;stroke-linejoin:round;stroke-miterlimit:1.5;-inkscape-stroke:none"
         d="m 54.279297,264.87695 c 0,0 -0.537994,0.56689 -1.216797,1.69727 -0.308548,0.5138 -0.647125,1.14236 -0.976562,1.88867 -0.01601,0.0363 -0.03088,0.0745 -0.04688,0.11133 h 0.300067 c 1.471716,0 2.664777,1.19306 2.664777,2.66478 v 12.33522 H 58 c 0.555318,0.002 1.006025,-0.44859 1.003906,-1.00391 v -17 z"
         transform="matrix(0.26458334,0,0,0.26458334,0,280.06666)"
         sodipodi:nodetypes="csscccccccc" />
      <path
         style="color:#000000;fill:#9ebed1;stroke-width:0.794878;stroke-linecap:round;stroke-linejoin:round;stroke-miterlimit:1.5;-inkscape-stroke:none"
         d="m 9.2598958,345.83398 h 4.2341152 v -0.52734 H 9.2598958 Z"
         id="path8071"
         sodipodi:nodetypes="ccccc" />
      <path
         style="color:#000000;fill:#fda35d;stroke-width:0.794878;stroke-linecap:round;stroke-linejoin:round;stroke-miterlimit:1.5;-inkscape-stroke:none"
         d="m 12.964844,344.24805 a 0.26460996,0.26460996 0 0 0 -0.265625,0.26367 v 1.32226 c 0,0 7.92e-4,0.83198 0.205078,1.82618 0.204286,0.99419 0.603288,2.17559 1.482422,2.8789 a 0.26460996,0.26460996 0 0 0 0.166015,0.0586 h 0.792969 a 0.26460996,0.26460996 0 0 0 0.265625,-0.26563 v -5.82031 a 0.26460996,0.26460996 0 0 0 -0.265625,-0.26367 z"
         id="path263299" />
      <path
         id="path393381"
         style="color:#000000;fill:#fd750d;fill-opacity:1;stroke-width:0.794878;stroke-linecap:round;stroke-linejoin:round;stroke-miterlimit:1.5;-inkscape-stroke:none"
         d="m 12.9651,344.24827 c -0.146321,-8.4e-4 -0.265549,0.11723 -0.266133,0.26355 v 0.79479 H 14.2875 c 0.14612,-5.6e-4 0.265033,0.11743 0.265617,0.26355 v 5.0276 h 0.792717 c 0.146928,5.6e-4 0.266178,-0.11869 0.265616,-0.26562 v -5.82032 c -5.84e-4,-0.14612 -0.119496,-0.26411 -0.265616,-0.26355 z"
         sodipodi:nodetypes="ccccccccccc" />
      <path
         style="color:#000000;fill:#a94c0f;stroke-width:0.794878;stroke-linecap:round;stroke-linejoin:round;stroke-miterlimit:1.5;-inkscape-stroke:none"
         d="m 15.611328,350.06836 h -1.58789 c -0.146176,-5.8e-4 -0.265121,0.11749 -0.265625,0.26367 -5.82e-4,0.14694 0.118683,0.26621 0.265625,0.26563 h 1.58789 z"
         id="path4083"
         sodipodi:nodetypes="cccccc" />
      <path
         style="color:#000000;fill:#9ebed1;stroke-width:0.794878;stroke-linecap:round;stroke-linejoin:round;stroke-miterlimit:1.5;-inkscape-stroke:none"
         d="m 11.376953,345.30664 a 0.2645835,0.2645835 0 0 0 -0.263672,0.26367 v 9.25977 a 0.2645835,0.2645835 0 0 0 0.263672,0.26562 0.2645835,0.2645835 0 0 0 0.265625,-0.26562 v -9.25977 a 0.2645835,0.2645835 0 0 0 -0.265625,-0.26367 z"
         id="path8073" />
      <path
         id="path420389"
         style="color:#000000;fill:#fd750d;fill-opacity:1;stroke-width:0.794878;stroke-linecap:round;stroke-linejoin:round;stroke-miterlimit:1.5;-inkscape-stroke:none"
         d="m 8.3945872,350.14877 c 0,0 0.142344,0.14999 0.321944,0.44907 0.08164,0.13594 0.171218,0.30225 0.258382,0.49971 0.0042,0.01 0.0082,0.0197 0.0124,0.0294 h -0.079392 c -0.389391,0 -0.705056,0.31567 -0.705056,0.70506 v 3.26369 h -0.792717 c -0.146928,5.3e-4 -0.266178,-0.11869 -0.265617,-0.26561 v -4.49792 z"
         sodipodi:nodetypes="csscccccccc" />
      <path
         style="color:#000000;fill:#fda35d;stroke-width:0.794878;stroke-linecap:round;stroke-linejoin:round;stroke-miterlimit:1.5;-inkscape-stroke:none"
         d="m 7.4082031,344.24805 a 0.26460996,0.26460996 0 0 0 -0.2636719,0.26367 v 5.82031 a 0.26460996,0.26460996 0 0 0 0.2636719,0.26563 h 0.7929688 a 0.26460996,0.26460996 0 0 0 0.1660156,-0.0586 c 0.8791337,-0.70331 1.2781357,-1.88471 1.4824219,-2.8789 0.2042866,-0.9942 0.2050776,-1.82618 0.2050786,-1.82618 v -1.32226 a 0.26460996,0.26460996 0 0 0 -0.2656255,-0.26367 z"
         id="path263313" />
      <path
         id="path406415"
         style="color:#000000;fill:#fd750d;fill-opacity:1;stroke-width:0.794878;stroke-linecap:round;stroke-linejoin:round;stroke-miterlimit:1.5;-inkscape-stroke:none"
         d="m 9.7908812,344.24827 c 0.146321,-8.4e-4 0.2655488,0.11723 0.2661328,0.26355 v 0.79479 H 8.4684809 c -0.1461199,-5.6e-4 -0.2650328,0.11743 -0.265617,0.26355 v 5.0276 H 7.4101472 c -0.1469284,5.6e-4 -0.2661779,-0.11869 -0.265616,-0.26562 v -5.82032 c 5.843e-4,-0.14612 0.1194965,-0.26411 0.265616,-0.26355 z"
         sodipodi:nodetypes="ccccccccccc" />
      <path
         style="color:#000000;fill:#70c2ef;stroke-width:0.794878;stroke-linecap:round;stroke-linejoin:round;stroke-miterlimit:1.5;-inkscape-stroke:none"
         d="m 1.9589844,348.48047 a 0.26460996,0.26460996 0 0 0 -0.265625,0.26562 v 3.96875 a 0.26460996,0.26460996 0 0 0 0.265625,0.26368 h 4.0058593 a 0.26460996,0.26460996 0 0 0 0.2636719,-0.26368 v -3.17578 a 0.26460996,0.26460996 0 0 0 -0.015625,-0.0898 c 0,0 -0.3709726,-0.96875 -1.3925781,-0.96875 z"
         id="path263323" />
      <path
         id="path383630"
         style="color:#000000;fill:#45a0d9;fill-opacity:1;stroke-width:0.794878;stroke-linecap:round;stroke-linejoin:round;stroke-miterlimit:1.5;-inkscape-stroke:none"
         d="m 4.8187848,348.48057 c 1.0216056,0 1.3942301,0.96842 1.3942301,0.96842 a 0.26460996,0.26460996 0 0 1 0.0155,0.0899 v 3.17603 a 0.26460996,0.26460996 0 0 1 -0.2656168,0.26355 H 5.6993513 v -2.91042 a 0.26460996,0.26460996 0 0 0 -0.015503,-0.0899 c -1e-7,0 -0.3726246,-0.96842 -1.3942302,-0.96842 H 1.6913267 v -0.26355 a 0.26460996,0.26460996 0 0 1 0.2661339,-0.26562 z" />
      <path
         style="color:#000000;fill:#2f3f4b;stroke-width:0.794878;stroke-linecap:round;stroke-linejoin:round;stroke-miterlimit:1.5;-inkscape-stroke:none"
         d="m 1.3867187,353.77148 a 0.2645835,0.2645835 0 0 0 -0.265625,0.26563 v 0.79297 a 0.2645835,0.2645835 0 0 0 0.265625,0.26562 0.2645835,0.2645835 0 0 0 0.2636719,-0.26562 v -0.79297 a 0.2645835,0.2645835 0 0 0 -0.2636719,-0.26563 z"
         id="path7902" />
      <path
         style="color:#000000;fill:#45a0d9;stroke-width:0.794878;stroke-linecap:round;stroke-linejoin:round;stroke-miterlimit:1.5;-inkscape-stroke:none"
         d="m 1.3867187,348.2168 c -0.245631,0 -0.42635154,0.0253 -0.58007807,0.10937 -0.15372654,0.0841 -0.2578125,0.26953 -0.25781251,0.41992 v 2.83008 a 0.26460996,0.26460996 0 0 0 0.26562501,0.26563 H 1.9589844 a 0.26460996,0.26460996 0 0 0 0.2636719,-0.26563 v -2.83008 c 0,-0.15039 -0.104086,-0.33586 -0.2578126,-0.41992 -0.1537265,-0.0841 -0.3324938,-0.10937 -0.578125,-0.10937 z"
         id="path263333" />
      <path
         style="color:#000000;fill:#000000;stroke-width:0.794878;stroke-linecap:round;stroke-linejoin:round;stroke-miterlimit:1.5;-inkscape-stroke:none"
         d="m 1.4296875,353.50781 a 0.2645835,0.2645835 0 0 0 -0.265625,0.26367 0.2645835,0.2645835 0 0 0 0.265625,0.26563 H 10.5 A 0.2645835,0.2645835 0 0 0 10.765625,353.77148 0.2645835,0.2645835 0 0 0 10.5,353.50781 Z"
         id="path9692" />
      <path
         style="color:#000000;fill:#45a0d9;stroke-width:0.794878;stroke-linecap:round;stroke-linejoin:round;stroke-miterlimit:1.5;-inkscape-stroke:none"
         d="m 1.9589844,351.65625 a 0.26460996,0.26460996 0 0 0 -0.265625,0.26367 v 1.85156 a 0.26460996,0.26460996 0 0 0 0.265625,0.26563 h 4.0058593 a 0.26460996,0.26460996 0 0 0 0.2636719,-0.26563 v -1.05664 a 0.26460996,0.26460996 0 0 0 -0.015625,-0.0898 c 0,0 -0.097798,-0.26372 -0.3554687,-0.50195 -0.2576708,-0.23823 -0.6907135,-0.4668 -1.3242188,-0.4668 z"
         id="path263343" />
      <path
         style="color:#000000;fill:#2276bc;stroke-width:0.794878;stroke-linecap:round;stroke-linejoin:round;stroke-miterlimit:1.5;-inkscape-stroke:none"
         d="m 3.8398438,349.86133 a 0.2645835,0.2645835 0 0 0 -0.3710938,0.041 0.2645835,0.2645835 0 0 0 0.041016,0.37305 l 0.5722656,0.45703 a 0.2645835,0.2645835 0 0 0 0.3730469,-0.041 0.2645835,0.2645835 0 0 0 -0.042969,-0.3711 z"
         id="path9941" />
      <path
         style="color:#000000;fill:#2276bc;stroke-width:0.794878;stroke-linecap:round;stroke-linejoin:round;stroke-miterlimit:1.5;-inkscape-stroke:none"
         d="m 4.0820312,349.86133 -0.5722656,0.45898 a 0.2645835,0.2645835 0 0 0 -0.041016,0.3711 0.2645835,0.2645835 0 0 0 0.3710938,0.041 l 0.5722656,-0.45703 a 0.2645835,0.2645835 0 0 0 0.042969,-0.37305 0.2645835,0.2645835 0 0 0 -0.3730468,-0.041 z"
         id="path10023" />
      <path
         id="path411475"
         style="fill:#fd750d;fill-opacity:1;stroke-width:3.00427;stroke-linecap:round;stroke-linejoin:round;stroke-miterlimit:1.5"
         d="m 27.003906,256.54102 v 9.02929 A 1.0001006,1.0001006 0 0 0 28,266.57422 h 2.996094 a 1.0001006,1.0001006 0 0 0 0.626953,-0.22266 c 3.012273,-2.40983 4.534016,-6.30408 5.367187,-9.81054 z"
         transform="matrix(0.26458334,0,0,0.26458334,0,280.06666)" />
      <path
         id="path71420"
         style="color:#000000;fill:#3a4d5c;stroke-width:0.794878;stroke-linecap:round;stroke-linejoin:round;stroke-miterlimit:1.5;-inkscape-stroke:none"
         d="m 7.4083335,344.24828 a 0.26460996,0.26460996 0 0 0 -0.2635499,0.26355 v 10.31823 a 0.26460996,0.26460996 0 0 0 0.2635499,0.26562 h 7.9375005 a 0.26460996,0.26460996 0 0 0 0.265617,-0.26562 v -10.31823 a 0.26460996,0.26460996 0 0 0 -0.265617,-0.26355 z m 0.2656168,0.52916 h 7.4083337 v 9.78907 H 7.6739503 Z" />
      <path
         style="color:#000000;fill:#70c2ef;stroke-width:0.794878;stroke-linecap:round;stroke-linejoin:round;stroke-miterlimit:1.5;-inkscape-stroke:none"
         d="m 7.109375,348.48047 c -1.0216055,0 -1.3945312,0.96875 -1.3945313,0.96875 a 0.26460996,0.26460996 0 0 0 -0.015625,0.0898 v 3.17578 a 0.26460996,0.26460996 0 0 0 0.265625,0.26368 h 4.0058594 a 0.26460996,0.26460996 0 0 0 0.2656249,-0.26368 v -3.96875 a 0.26460996,0.26460996 0 0 0 -0.2656249,-0.26562 z"
         id="path263357" />
      <path
         id="path379216"
         style="color:#000000;fill:#45a0d9;fill-opacity:1;stroke-width:0.794878;stroke-linecap:round;stroke-linejoin:round;stroke-miterlimit:1.5;-inkscape-stroke:none"
         d="m 7.1091269,348.48057 c -1.0216056,0 -1.3942301,0.96842 -1.3942302,0.96842 a 0.26460996,0.26460996 0 0 0 -0.015503,0.0899 v 3.17603 a 0.26460996,0.26460996 0 0 0 0.2656169,0.26355 h 0.2635498 v -2.91042 a 0.26460996,0.26460996 0 0 1 0.015503,-0.0899 c 1e-7,0 0.3726246,-0.96842 1.3942302,-0.96842 h 2.5982914 v -0.26355 a 0.26460996,0.26460996 0 0 0 -0.2661339,-0.26562 z" />
      <path
         style="color:#000000;fill:#45a0d9;stroke-width:0.794878;stroke-linecap:round;stroke-linejoin:round;stroke-miterlimit:1.5;-inkscape-stroke:none"
         d="m 7.3964844,351.65625 c -0.6335054,0 -1.0685011,0.22857 -1.3261719,0.4668 -0.2576708,0.23823 -0.3554687,0.50195 -0.3554688,0.50195 a 0.26460996,0.26460996 0 0 0 -0.015625,0.0898 v 1.05664 a 0.26460996,0.26460996 0 0 0 0.265625,0.26563 h 4.0156251 a 0.26460996,0.26460996 0 0 0 0.2636722,-0.26367 v -1.85352 a 0.26460996,0.26460996 0 0 0 -0.2636722,-0.26367 z"
         id="path263363" />
      <path
         style="color:#000000;fill:#2f3f4b;stroke-width:0.794878;stroke-linecap:round;stroke-linejoin:round;stroke-miterlimit:1.5;-inkscape-stroke:none"
         d="m 10.542969,353.77148 a 0.2645835,0.2645835 0 0 0 -0.263672,0.26563 v 0.79297 a 0.2645835,0.2645835 0 0 0 0.263672,0.26562 0.2645835,0.2645835 0 0 0 0.265625,-0.26562 v -0.79297 a 0.2645835,0.2645835 0 0 0 -0.265625,-0.26563 z"
         id="path10621" />
      <path
         id="path378211"
         style="color:#000000;fill:#2a8dcb;fill-opacity:1;stroke-width:0.794878;stroke-linecap:round;stroke-linejoin:round;stroke-miterlimit:1.5;-inkscape-stroke:none"
         d="m 9.9687258,351.65609 a 0.26460996,0.26460996 0 0 1 0.2656172,0.26407 v 0.2651 H 7.9238894 c -0.6335054,0 -1.0667963,0.22892 -1.3244671,0.46715 -0.2576706,0.23823 -0.3555339,0.50178 -0.3555339,0.50178 a 0.26460996,0.26460996 0 0 0 -0.015503,0.0899 v 0.79323 H 5.9627686 A 0.26460996,0.26460996 0 0 1 5.6992187,353.7717 v -1.05678 a 0.26460996,0.26460996 0 0 1 0.015503,-0.0899 c 0,0 0.097863,-0.26354 0.3555339,-0.50178 0.2576708,-0.23822 0.6909618,-0.46715 1.3244671,-0.46715 z" />
      <path
         style="color:#000000;fill:#45a0d9;stroke-width:0.794878;stroke-linecap:round;stroke-linejoin:round;stroke-miterlimit:1.5;-inkscape-stroke:none"
         d="m 11.115234,352.04687 c 0.146938,5.8e-4 0.266202,-0.11868 0.265625,-0.26562 v -3.03516 c -2e-6,-0.15039 -0.104086,-0.33586 -0.257812,-0.41992 -0.153726,-0.0841 -0.334448,-0.10937 -0.580078,-0.10937 -0.245631,0 -0.426352,0.0253 -0.5800784,0.10937 -0.1537262,0.0841 -0.2558573,0.26953 -0.2558593,0.41992 v 3.03516 c -5.735e-4,0.14617 0.1174971,0.26512 0.2636718,0.26562 z"
         id="path263373"
         sodipodi:nodetypes="ccccsccccc" />
      <path
         style="color:#000000;fill:#2276bc;stroke-width:0.794878;stroke-linecap:round;stroke-linejoin:round;stroke-miterlimit:1.5;-inkscape-stroke:none"
         d="m 8.2832031,349.80469 a 0.2645835,0.2645835 0 0 0 -0.1953125,0.0566 l -0.5722656,0.45898 a 0.2645835,0.2645835 0 0 0 -0.041016,0.3711 0.2645835,0.2645835 0 0 0 0.3730468,0.041 l 0.5722657,-0.45703 a 0.2645835,0.2645835 0 0 0 0.041016,-0.37305 0.2645835,0.2645835 0 0 0 -0.1777344,-0.0976 z"
         id="path10629" />
      <path
         style="color:#000000;fill:#2276bc;stroke-width:0.794878;stroke-linecap:round;stroke-linejoin:round;stroke-miterlimit:1.5;-inkscape-stroke:none"
         d="m 7.6523437,349.80469 a 0.2645835,0.2645835 0 0 0 -0.1777343,0.0976 0.2645835,0.2645835 0 0 0 0.041016,0.37305 l 0.5722656,0.45703 a 0.2645835,0.2645835 0 0 0 0.3730469,-0.041 0.2645835,0.2645835 0 0 0 -0.041016,-0.3711 l -0.5722657,-0.45898 a 0.2645835,0.2645835 0 0 0 -0.1953125,-0.0566 z"
         id="path10631" />
      <path
         style="color:#000000;fill:#349951;stroke-width:0.794878;stroke-linecap:round;stroke-linejoin:round;stroke-miterlimit:1.5;-inkscape-stroke:none"
         d="m 3.1875,344.46875 c -0.3041671,0.008 -0.6657956,0.0193 -0.9296875,0.2832 -0.263886,0.26389 -0.2727969,0.62553 -0.28125,0.92969 C 1.9681094,345.9858 2,346.24609 2,346.24609 a 0.26460996,0.26460996 0 0 0 0.2304688,0.23047 c 0,0 0.2602897,0.0319 0.5644531,0.0234 0.3041634,-0.008 0.6657979,-0.0174 0.9296875,-0.28125 0.2638912,-0.26389 0.2747444,-0.62747 0.2832031,-0.93164 0.00846,-0.30417 -0.025391,-0.5625 -0.025391,-0.5625 A 0.26460996,0.26460996 0 0 0 3.7519527,344.4941 c 0,0 -0.260286,-0.0339 -0.5644531,-0.0254 z"
         id="path263387" />
      <path
         style="color:#000000;fill:#50b86b;stroke-width:0.794878;stroke-linecap:round;stroke-linejoin:round;stroke-miterlimit:1.5;-inkscape-stroke:none"
         d="m 1.5039062,344.76953 c -0.2479311,-0.007 -0.4589843,0.0195 -0.4589843,0.0195 a 0.26460996,0.26460996 0 0 0 -0.23046877,0.23047 c 0,0 -0.0264261,0.21106 -0.0195313,0.45899 0.006895,0.24793 0.006538,0.54755 0.24023437,0.78125 0.2336937,0.23369 0.5333224,0.23334 0.78125,0.24023 0.2479277,0.007 0.4589844,-0.0195 0.4589844,-0.0195 A 0.26460996,0.26460996 0 0 0 2.5058594,346.25 c 0,0 0.026422,-0.21106 0.019531,-0.45898 -0.00689,-0.24793 -0.00654,-0.54561 -0.2402343,-0.7793 -0.2336945,-0.23369 -0.5333189,-0.23529 -0.7812499,-0.24219 z"
         id="path263393" />
      <path
         style="color:#000000;fill:#70c2ef;stroke-width:0.794878;stroke-linecap:round;stroke-linejoin:round;stroke-miterlimit:1.5;-inkscape-stroke:none"
         d="m 4.7617187,346.09961 c -0.289119,0 -0.5293004,0.24018 -0.5292968,0.5293 v 0.79296 a 0.26460996,0.26460996 0 0 0 0.265625,0.26563 h 1.3222656 a 0.26460996,0.26460996 0 0 0 0.265625,-0.26563 v -0.79296 c 3.6e-6,-0.28912 -0.2401778,-0.5293 -0.5292969,-0.5293 z"
         id="path263399" />
      <path
         style="color:#000000;fill:#9ebed1;stroke-width:0.794878;stroke-linecap:round;stroke-linejoin:round;stroke-miterlimit:1.5;-inkscape-stroke:none"
         d="m 12.351563,349.02344 a 0.2645835,0.2645835 0 0 0 -0.152344,0.13281 l -0.265625,0.5293 a 0.2645835,0.2645835 0 0 0 0.11914,0.35547 0.2645835,0.2645835 0 0 0 0.355469,-0.11915 l 0.263672,-0.52929 a 0.2645835,0.2645835 0 0 0 -0.117187,-0.35547 0.2645835,0.2645835 0 0 0 -0.203125,-0.0137 z"
         id="path19909" />
      <path
         style="color:#000000;fill:#9ebed1;stroke-width:0.794878;stroke-linecap:round;stroke-linejoin:round;stroke-miterlimit:1.5;-inkscape-stroke:none"
         d="m 12.880859,349.81641 a 0.2645835,0.2645835 0 0 0 -0.152343,0.13281 l -0.529297,1.05859 a 0.2645835,0.2645835 0 0 0 0.117187,0.35547 0.2645835,0.2645835 0 0 0 0.355469,-0.11914 l 0.529297,-1.05664 a 0.2645835,0.2645835 0 0 0 -0.119141,-0.35547 0.2645835,0.2645835 0 0 0 -0.201172,-0.0156 z"
         id="path19911" />
      <path
         style="color:#000000;fill:#dc1c4b;stroke-width:0.794878;stroke-linecap:round;stroke-linejoin:round;stroke-miterlimit:1.5;-inkscape-stroke:none"
         d="m 1.6464844,345.97266 c -0.1575941,0 -0.2938448,0.056 -0.40625,0.1582 -0.1124053,0.10223 -0.2037959,0.29681 -0.140625,0.48633 l 0.296875,0.88867 a 0.26460996,0.26460996 0 0 0 0.25,0.18164 h 1.1855469 a 0.26460996,0.26460996 0 0 0 0.25,-0.18164 l 0.296875,-0.88867 a 0.26460996,0.26460996 0 0 0 0.013672,-0.084 c 0,-0.30613 -0.2544075,-0.56054 -0.5605468,-0.56054 z"
         id="path263413" />
      <path
         id="path386824"
         style="color:#000000;fill:#a21538;fill-opacity:1;stroke-width:0.794878;stroke-linecap:round;stroke-linejoin:round;stroke-miterlimit:1.5;-inkscape-stroke:none"
         d="m 1.646411,345.97272 c -0.157594,0 -0.2937714,0.0559 -0.4061767,0.15813 -0.089781,0.0816 -0.1657956,0.22222 -0.1607137,0.37207 0.012433,-8e-4 0.025011,-0.001 0.037724,-0.001 h 1.1854575 c 0.3061393,0 0.5606893,0.25456 0.5606893,0.56069 a 0.26460996,0.26460996 0 0 1 -0.013436,0.0837 l -0.1808675,0.54105 h 0.1627807 a 0.26460996,0.26460996 0 0 0 0.250114,-0.18139 L 3.379122,346.6171 a 0.26460996,0.26460996 0 0 0 0.013436,-0.0837 c 0,-0.30613 -0.25455,-0.56069 -0.5606893,-0.56069 z" />
      <path
         id="path391004"
         style="color:#000000;fill:#45a0d9;fill-opacity:1;stroke-width:0.794878;stroke-linecap:round;stroke-linejoin:round;stroke-miterlimit:1.5;-inkscape-stroke:none"
         d="m 4.7480306,346.09984 c -0.2830501,0.007 -0.5157343,0.24456 -0.5157308,0.52916 h 0.7953003 c 0.2891191,0 0.5291703,0.24005 0.5291667,0.52917 v 0.52917 h 0.2635498 a 0.26460996,0.26460996 0 0 0 0.2656169,-0.26562 V 346.629 c 3.6e-6,-0.28912 -0.2400476,-0.52916 -0.5291667,-0.52916 H 4.7614665 c -0.00452,0 -0.00894,-1.2e-4 -0.013436,0 z" />
      <path
         style="color:#000000;fill:#3a4d5c;stroke-width:0.794878;stroke-linecap:round;stroke-linejoin:round;stroke-miterlimit:1.5;-inkscape-stroke:none"
         d="m 1.0585937,347.1582 a 0.2645835,0.2645835 0 0 0 -0.26562495,0.26367 0.2645835,0.2645835 0 0 0 0.26562495,0.26563 h 5.0273438 a 0.2645835,0.2645835 0 0 0 0.2636719,-0.26563 0.2645835,0.2645835 0 0 0 -0.2636719,-0.26367 z"
         id="path6752" />
      <path
         style="color:#000000;fill:#3a4d5c;stroke-width:0.794878;stroke-linecap:round;stroke-linejoin:round;stroke-miterlimit:1.5;-inkscape-stroke:none"
         d="m 6.3496094,344.24805 a 0.2645835,0.2645835 0 0 0 -0.2636719,0.26367 0.2645835,0.2645835 0 0 0 0.2636719,0.26562 H 16.404297 a 0.2645835,0.2645835 0 0 0 0.263672,-0.26562 0.2645835,0.2645835 0 0 0 -0.263672,-0.26367 z"
         id="path2233" />
      <path
         style="color:#000000;fill:#2f3f4b;stroke-width:0.794878;stroke-linecap:round;stroke-linejoin:round;stroke-miterlimit:1.5;-inkscape-stroke:none"
         d="M 16.138672,343.98242 A 0.2645835,0.2645835 0 0 0 15.875,344.24805 v 0.52929 a 0.2645835,0.2645835 0 0 0 0.263672,0.26368 0.2645835,0.2645835 0 0 0 0.265625,-0.26368 v -0.52929 a 0.2645835,0.2645835 0 0 0 -0.265625,-0.26563 z"
         id="path2944" />
      <path
         style="color:#000000;fill:#2f3f4b;stroke-width:0.794878;stroke-linecap:round;stroke-linejoin:round;stroke-miterlimit:1.5;-inkscape-stroke:none"
         d="m 6.6152344,343.98242 a 0.2645835,0.2645835 0 0 0 -0.265625,0.26563 v 0.52929 a 0.2645835,0.2645835 0 0 0 0.265625,0.26368 0.2645835,0.2645835 0 0 0 0.2636718,-0.26368 v -0.52929 a 0.2645835,0.2645835 0 0 0 -0.2636718,-0.26563 z"
         id="path3026" />
      <path
         id="path370548"
         style="color:#000000;fill:#2a8dcb;fill-opacity:1;stroke-width:0.794878;stroke-linecap:round;stroke-linejoin:round;stroke-miterlimit:1.5;-inkscape-stroke:none"
         d="m 1.9590534,351.65609 a 0.26460996,0.26460996 0 0 0 -0.2656168,0.26407 v 0.2651 h 2.3104532 c 0.6335054,0 1.0667963,0.22892 1.3244671,0.46715 0.2576706,0.23823 0.3555339,0.50178 0.3555339,0.50178 a 0.26460996,0.26460996 0 0 1 0.015503,0.0899 v 0.79323 h 0.2656168 a 0.26460996,0.26460996 0 0 0 0.2635499,-0.26562 v -1.05678 a 0.26460996,0.26460996 0 0 0 -0.015503,-0.0899 c 0,0 -0.097863,-0.26354 -0.3555339,-0.50178 -0.2576708,-0.23822 -0.6909618,-0.46715 -1.3244671,-0.46715 z" />
      <path
         id="path312902"
         style="color:#000000;fill:#2a8dcb;fill-opacity:1;stroke-width:0.794878;stroke-linecap:round;stroke-linejoin:round;stroke-miterlimit:1.5;-inkscape-stroke:none"
         d="m 1.34152,348.21702 c -0.2228112,0.003 -0.39073244,0.0302 -0.53485099,0.10904 -0.15372636,0.0841 -0.2578653,0.26974 -0.2578653,0.42013 v 0.0202 c 0.091177,-0.0149 0.19228171,-0.0202 0.30850814,-0.0202 0.24563125,0 0.42453295,0.0249 0.57825935,0.10904 0.1537266,0.0841 0.2578655,0.26974 0.2578655,0.42013 v 2.56625 h 0.2656168 a 0.26460996,0.26460996 0 0 0 0.2635499,-0.26562 v -2.8298 c 0,-0.15039 -0.1041389,-0.33607 -0.2578655,-0.42013 -0.1537264,-0.0841 -0.3326281,-0.10904 -0.5782594,-0.10904 -0.015351,0 -0.030104,-2e-4 -0.044958,0 z" />
      <path
         style="color:#000000;fill:#2276bc;fill-opacity:1;stroke-width:0.794878;stroke-linecap:round;stroke-linejoin:round;stroke-miterlimit:1.5;-inkscape-stroke:none"
         d="m 1.3867187,350.86133 c -0.82024942,0 -1.13374036,0.4805 -1.09570307,0.82422 l 0.23437499,2.11718 c 0.0320344,0.28948 0.28760753,0.49805 0.57421878,0.49805 H 1.671875 c 0.2864262,0 0.5472828,-0.20814 0.5761719,-0.50195 l 0.2324219,-2.11328 a 0.26460996,0.26460996 0 0 0 0.00195,-0.004 c 0.033077,-0.3364 -0.2754925,-0.82031 -1.0957032,-0.82031 z"
         id="path263439" />
      <path
         id="path335348"
         style="color:#000000;fill:#2a8dcb;fill-opacity:1;stroke-width:0.794878;stroke-linecap:round;stroke-linejoin:round;stroke-miterlimit:1.5;-inkscape-stroke:none"
         d="m 10.49801,348.21702 c -0.222811,0.003 -0.390732,0.0302 -0.5348505,0.10904 -0.1537263,0.0841 -0.2578653,0.26974 -0.2578653,0.42013 v 0.0202 c 0.091177,-0.0149 0.1922817,-0.0202 0.3085078,-0.0202 0.245632,0 0.424533,0.0249 0.57826,0.10904 0.153726,0.0841 0.257865,0.26974 0.257865,0.42013 v 2.56625 h 0.265617 a 0.26460996,0.26460996 0 0 0 0.26355,-0.26562 v -2.8298 c 0,-0.15039 -0.104139,-0.33607 -0.257866,-0.42013 -0.153726,-0.0841 -0.332628,-0.10904 -0.578259,-0.10904 -0.01535,0 -0.0301,-2e-4 -0.04496,0 z" />
      <path
         style="color:#000000;fill:#2276bc;fill-opacity:1;stroke-width:0.794878;stroke-linecap:round;stroke-linejoin:round;stroke-miterlimit:1.5;-inkscape-stroke:none"
         d="m 10.542969,350.86133 c -0.8202122,0 -1.128786,0.4839 -1.0957034,0.82031 a 0.26460996,0.26460996 0 0 0 0,0.004 l 0.234375,2.11328 c 0.028887,0.29381 0.2897345,0.50195 0.5761724,0.50195 h 0.572265 c 0.286438,0 0.545332,-0.20814 0.574219,-0.50195 l 0.234375,-2.11328 a 0.26460996,0.26460996 0 0 0 0,-0.004 c 0.03307,-0.33639 -0.275495,-0.82031 -1.095703,-0.82031 z"
         id="path263445" />
      <path
         style="color:#000000;fill:#3a4d5c;stroke-width:0.794878;stroke-linecap:round;stroke-linejoin:round;stroke-miterlimit:1.5;-inkscape-stroke:none"
         d="m 0.52929687,354.56641 a 0.2645835,0.2645835 0 0 0 -0.26562499,0.26367 0.2645835,0.2645835 0 0 0 0.26562499,0.26562 H 16.404297 a 0.2645835,0.2645835 0 0 0 0.263672,-0.26562 0.2645835,0.2645835 0 0 0 -0.263672,-0.26367 z"
         id="path6750" />
      <path
         id="path273945"
         style="color:#000000;fill:#2276bc;fill-opacity:1;stroke-width:3.00427;stroke-linecap:round;stroke-linejoin:round;stroke-miterlimit:1.5;-inkscape-stroke:none"
         d="m 23.541016,273.21591 v -13.51368 c -0.40074,0.31213 -0.731094,0.65529 -1,0.98633 -0.268974,-0.33165 -0.59901,-0.67596 -1,-0.98828 v 13.51563 z"
         transform="matrix(0.26458334,0,0,0.26458334,0,280.06666)"
         sodipodi:nodetypes="cccccc" />
      <path
         id="path9826"
         style="color:#000000;fill:#2276bc;fill-opacity:1;stroke-width:0.794878;stroke-linecap:round;stroke-linejoin:round;stroke-miterlimit:1.5;-inkscape-stroke:none"
         d="m 6.2285603,351.9956 c -0.0586,0.0413 -0.111346,0.0844 -0.15813,0.12764 -0.039,0.0361 -0.07456,0.0728 -0.106453,0.10904 -0.03188,-0.0362 -0.06747,-0.0725 -0.106454,-0.10852 -0.04678,-0.0433 -0.09963,-0.0863 -0.158129,-0.12764 -4.6e-5,0.6807 0,1.36039 0,2.04123 l 0.529166,-5.3e-4 c 2.3e-5,-0.68068 0,-1.36091 0,-2.04122 z"
         sodipodi:nodetypes="cscccccc" />
      <path
         id="path330581"
         style="color:#000000;fill:#1d5c87;fill-opacity:1;stroke-width:0.794878;stroke-linecap:round;stroke-linejoin:round;stroke-miterlimit:1.5;-inkscape-stroke:none"
         d="m 1.3864785,350.86131 c -0.66531382,0 -0.99713232,0.31624 -1.07848722,0.61908 0.1493613,-0.0563 0.331224,-0.0899 0.5493206,-0.0899 0.82021072,0 1.12913422,0.48371 1.09605712,0.82011 a 0.26460996,0.26460996 0 0 1 -0.00206,0.004 l -0.2294435,2.08411 c 0.2662693,-0.0225 0.4988605,-0.22354 0.5260663,-0.50023 l 0.2325439,-2.11305 a 0.26460996,0.26460996 0 0 0 0.00206,-0.004 c 0.033077,-0.3364 -0.2758464,-0.8201 -1.0960572,-0.8201 z" />
      <path
         id="path335350"
         style="color:#000000;fill:#1d5c87;fill-opacity:1;stroke-width:0.794878;stroke-linecap:round;stroke-linejoin:round;stroke-miterlimit:1.5;-inkscape-stroke:none"
         d="m 10.542969,350.86131 c -0.6653138,0 -0.9971323,0.31624 -1.0784872,0.61908 0.1493613,-0.0563 0.331224,-0.0899 0.5493202,-0.0899 0.820211,0 1.129135,0.48371 1.096058,0.82011 a 0.26460996,0.26460996 0 0 1 -0.0021,0.004 l -0.229444,2.08411 c 0.266269,-0.0225 0.49886,-0.22354 0.526066,-0.50023 l 0.232544,-2.11305 a 0.26460996,0.26460996 0 0 0 0.0021,-0.004 c 0.03308,-0.3364 -0.275846,-0.8201 -1.096057,-0.8201 z" />
      <path
         id="path437332"
         style="color:#000000;fill:#2f3f4b;fill-opacity:1;stroke-width:3.00427;stroke-linecap:round;stroke-linejoin:round;stroke-miterlimit:1.5;-inkscape-stroke:none"
         d="m 27.003906,244.57617 v 2 h 2 v -2 z m 30,0 v 2 h 2 v -2 z"
         transform="matrix(0.26458334,0,0,0.26458334,0,280.06666)" />
    </g>
  </g>
</svg>
