<svg xmlns="http://www.w3.org/2000/svg" viewBox="0 0 128 128"><title>Tropical-Leaf</title><g id="Tropical-Leaf"><g id="Tropical-Leaf-2" data-name="Tropical-Leaf"><path d="M81.7,84.9a47.05,47.05,0,0,1,5.5.51c3.77.52,7.64,1.14,11.39,1.41,11.66.82,22-1.87,23.42-22V54c-5.82,7.49-12.9,12-23.41,14.59-1.42.35-2.9.67-4.45.95-5.58,1-7.64.58-8-1.71-.33-1.89,3.13-2.82,9.09-3.68l3.4-.5c12.65-1.93,20.83-4.17,21.54-13.49.59-7.72.91-13.39-.72-16.79-3.49,4.55-6.69,9.69-15.67,12.33-2.09.61-3.82,1.14-5.16,1.41-2.08.41-3.21.18-3.31-1.35,0-.7.52-2.46,3.31-4.07A18.08,18.08,0,0,1,102.76,40c13.05-3.62,16.09-8.89,9.18-17.36-4.15-5.08-9.05-10.13-7.87-20.65a15.49,15.49,0,0,1-5.49,2.3c-5.12,1.14-11.16.45-16.88.14a41.51,41.51,0,0,0-9.34.3c-5,.91-9,3.55-10.69,10.31A28.36,28.36,0,0,0,61,19.43c-.52,6.27,2,15.5-.86,19.16-1.72,2.18-4.23-1.34-5.43-8.49,0-.23-.07-.46-.11-.69a24.52,24.52,0,0,1,0-6.56A38.55,38.55,0,0,1,60.26,8.11l-5.67,3.31Q51.78,13.07,49,14.77c-2.57,1.56-5.14,3.17-7.66,4.86l-.64.44c-2.19,1.52-4,3.18-4.42,6.18C31.18,29.8,25.4,33.16,21.59,37c-3.13,3.14-4.92,6.59-3.87,10.7a30.82,30.82,0,0,0,3.87,8.82,61.59,61.59,0,0,0,7.94,9.81c2.21,2.29,3.09,3.64,2.23,4.51s-1.85.93-5.54-1.4a23.31,23.31,0,0,1-4.63-3.8c-5.33-5.71-6.15-12.91-6.45-19.19C9.21,55.88,6.17,66.15,6,74.91V76.4C6.11,82.07,7.47,87,10.09,90.55a19.38,19.38,0,0,0,11.5,7.05c4.85,1.07,10.78.76,17.52-1.89-2.92,8.29-2,14.87,1.56,19.74a21.86,21.86,0,0,0,8.3,6.69,33.83,33.83,0,0,0,5.62,2.11,43.77,43.77,0,0,0,5.33,1.14l1.75.24a41.4,41.4,0,0,0,10.69,0,25.72,25.72,0,0,0,9.34-3.1,24.06,24.06,0,0,0,6-4.89c3.74-4.18,7.2-5.55,10.9-7.82a30.19,30.19,0,0,0,5-3.77c7.05-6.58,10.78-12,12.26-17.14-4.29,2.85-10.2,4.6-17.28,4.77a58,58,0,0,1-16.23-2.08l-.65-.19c-4.11-1.26-5.54-3.44-4.55-5.12C77.78,85.26,79.32,84.87,81.7,84.9ZM94.62,25.68a19.59,19.59,0,0,1,4-3,16.1,16.1,0,0,1,2.24-1.05c2.45-.92,4.36.7,1.84,3.22a24.13,24.13,0,0,1-4.09,3.42,11.09,11.09,0,0,1-1.82.94C93.44,30.53,92.13,28.1,94.62,25.68ZM87,49.17c-1.17,1.49-3.7,2.45-4.89,1.63a3.62,3.62,0,0,1-.4-.31,1.69,1.69,0,0,1,0-2.67,5,5,0,0,1,5-1.14C88.1,47.32,87.78,48.16,87,49.17ZM81.7,10.41a24.56,24.56,0,0,1,1.78-2c1.34-1.38,3.22-1.49,1.88.85a29.73,29.73,0,0,0-3.65,8.9,18.21,18.21,0,0,0-.35,4.26c.12,3.68-3.22,4.58-3.65,1.07A17.63,17.63,0,0,1,81.7,10.41ZM23.61,84.53a13.16,13.16,0,0,1-2-.08,5.48,5.48,0,0,1-2.37-.82c-2.8-1.87-2-3.65,1-3.11a7.75,7.75,0,0,1,1.36.45C24.12,82,28.17,84.42,23.61,84.53ZM71.18,66a8.41,8.41,0,0,1,3.7.88c1.85.94,2.17,2.24.55,3.25a5,5,0,0,1-3.07.78,5.24,5.24,0,0,1-1.89-.54C67.49,68.91,67.34,66,71.18,66ZM59.6,46.19c.5-1.05,1.05-1.71,2.08-1.15a3,3,0,0,1,.32.2c2.33,1.66,3.07,8.14-.32,6.72l-.21-.09C60.17,51.22,58.79,47.89,59.6,46.19Zm-16.15,9a1.86,1.86,0,0,1-2.78-.56l-.22-.3c-4.3-6.47-3.82-13-3.1-18.06a56,56,0,0,0,3.31,8.15c1.12,2.34,2.31,4.7,3.41,7.32C44.88,53.66,44.29,54.64,43.45,55.21Zm5.79,14.26L49,69.31c-1.37-.94-3-3.93-2.46-5.4.39-1.07.91-1.67,2.29-.75l.17.12C51.53,65.22,53.09,71.38,49.24,69.47Zm5.92,45.93-.57-.42c-2.37-1.85-3.88-4.34-3.9-6.72s2.83-4,3.55-.5a14.35,14.35,0,0,0,.36,1.41,12.9,12.9,0,0,0,3.17,5.25C59.7,116.44,57.46,117,55.16,115.4Zm6.51-30.71A9.88,9.88,0,0,1,60.14,84c-2.39-1.33-2.44-3.85.69-3.76a3.7,3.7,0,0,1,.84.15c2.07.58,5.74,2.69,3.13,4.32A3.8,3.8,0,0,1,61.67,84.69Zm20,24.11q1.79.63,3.69,1.16c3.91,1.09,2.45,3.54-3.5,2.93l-.18,0a25.75,25.75,0,0,1-9.34-2.58,22.18,22.18,0,0,1-5.6-4.19c-2.91-2.94-1.69-6.8,3-3.45q1.28.91,2.58,1.71A47.43,47.43,0,0,0,81.7,108.8Z" fill="#23867e" fill-rule="evenodd"/><path d="M84.36,85.07c.87.09,1.82.2,2.84.35,3.77.52,7.64,1.14,11.39,1.41,11.66.82,22-1.87,23.42-22V54c-5.82,7.49-12.9,12-23.41,14.59-1.42.35-2.9.67-4.45.95-5.58,1-7.64.58-8-1.71-.33-1.89,3.13-2.82,9.09-3.68l3.4-.5c12.65-1.93,20.83-4.17,21.54-13.49.59-7.72.91-13.39-.72-16.79-3.49,4.55-6.69,9.69-15.67,12.33-2.09.61-3.82,1.14-5.16,1.41-2.08.41-3.21.18-3.31-1.35,0-.7.52-2.46,3.31-4.07A18.08,18.08,0,0,1,102.76,40c13.05-3.62,16.09-8.89,9.18-17.36-4.15-5.08-9.05-10.13-7.87-20.65-.27.19-.55.36-.83.52q-2.33,3.35-4.67,6.82c-4.7,7-9.43,14.27-14.22,21.67-4,6.11-8,12.29-12,18.39C69,54.54,65.52,59.63,62,64.58c-2.47,3.52-5,7-7.46,10.31q-2.45,3.27-4.92,6.41C46,86,41.61,91.33,37.35,96.36c.58-.2,1.16-.41,1.76-.64-5.43,15.41,2.51,24.88,15.48,28.54a43.77,43.77,0,0,0,5.33,1.14q1.07.16,2.13.28a41,41,0,0,0,10.31,0,24.23,24.23,0,0,0,15.32-8c3.74-4.18,7.2-5.55,10.9-7.82a30.19,30.19,0,0,0,5-3.77c7.05-6.58,10.78-12,12.26-17.14-4.29,2.85-10.2,4.6-17.28,4.77a56.69,56.69,0,0,1-14.22-1.58q-1-.23-2-.5c-4.6-1.22-6.24-3.54-5.21-5.3C78,84.9,80.46,84.68,84.36,85.07ZM94.62,25.68a19.59,19.59,0,0,1,4-3,16.1,16.1,0,0,1,2.24-1.05c2.45-.92,4.36.7,1.84,3.22a24.13,24.13,0,0,1-4.09,3.42,11.09,11.09,0,0,1-1.82.94C93.44,30.53,92.13,28.1,94.62,25.68ZM84.36,46.47a3.88,3.88,0,0,1,2.37.2c1.38.65,1.05,1.49.25,2.51a5.52,5.52,0,0,1-2.62,1.74,2.69,2.69,0,0,1-2.26-.11C79.63,49.09,81.93,46.94,84.36,46.47ZM71.18,66a8.41,8.41,0,0,1,3.7.88c1.85.94,2.17,2.24.55,3.25a5,5,0,0,1-3.07.78,5.24,5.24,0,0,1-1.89-.54C67.49,68.91,67.34,66,71.18,66Zm-16,49.39-.57-.42c-2.37-1.85-3.88-4.34-3.9-6.72s2.83-4,3.55-.5a14.35,14.35,0,0,0,.36,1.41,12.9,12.9,0,0,0,3.17,5.25C59.7,116.44,57.46,117,55.16,115.4ZM64.8,84.71a3.48,3.48,0,0,1-2.75.1,9.53,9.53,0,0,1-1.9-.81c-2.39-1.33-2.44-3.85.69-3.76a4.56,4.56,0,0,1,1.21.27C64.14,81.22,67.26,83.18,64.8,84.71Zm19.56,24.95,1,.3c3.3.92,2.78,2.8-1,3a16,16,0,0,1-2.48-.08,25.92,25.92,0,0,1-9.52-2.6,22.18,22.18,0,0,1-5.6-4.19c-2.91-2.94-1.69-6.8,3-3.45q1.28.91,2.58,1.71A48.81,48.81,0,0,0,84.36,109.66Z" fill="#23867e" fill-rule="evenodd"/><path d="M109.56,26.33c-5.85,7.29-23.5,16.71-33,17.34l.4-1.5c9.2-.61,26.74-9,32.4-16.1Z" fill="#1c6e67"/><path d="M70.06,13.38c-3.38,8.4-2.23,27.34,2.39,35.27l1.13-1.08c-4.47-7.69-6.44-26-3.17-34.17Z" fill="#1c6e67"/><path d="M48.69,23.62c-2.77,10.32,2.41,34.75,10,45.55l1.26-1.24C52.6,57.47,46.45,33.68,49.14,23.7Z" fill="#1c6e67"/><path d="M116.15,46.68c-7.82,7.39-34.43,14.51-50,12.93l.42-1.51c15,2.06,39.22-3.43,49.39-11.51Z" fill="#1c6e67"/><path d="M113.88,71.16c-9.14,5.81-35.27,10.5-57.57,4L57,73.62c14.67,4,40.59,6,56.67-2.56Z" fill="#1c6e67"/><path d="M29.61,42.22c-.7,8.89,11.55,30.65,20.14,39.67L51,80.68c-8.42-8.92-21.58-29.93-20.86-38.44Z" fill="#1c6e67"/><path d="M96,100.37c-10.31.93-36.05-8.8-46.86-15.85l1.38-1.11c10.68,6.9,35.58,17.44,45.45,16.51Z" fill="#1c6e67"/><path d="M77.61,120c-7.74-.39-25.18-24-31.29-32l1.34-1.26c6,7.88,23.32,32.63,30.1,32.77Z" fill="#1c6e67"/><path d="M17.59,73.35c-.29,5.94,21.65,7.48,27.35,13.52L46.8,85.1c-8.41-6.36-29-6.05-28.68-12Z" fill="#1c6e67"/><path d="M44.68,87.9c-10.22,6.61-25.16,4.75-34-3.12l.31-.21c8.54,7.61,24,7.74,33.94,1.34Z" fill="#1c6e67"/><path d="M41.71,91.93c-2.86,11.18,3.74,23.79,13.95,29l.1-.34c-9.88-5.08-15-18.75-12.27-29.58Z" fill="#1c6e67"/><path d="M37.53,93.44c-7.1,7.79-16.09,17.82-25.21,27.61.95,1,1.94,2,2.93,3,9.67-10.27,19.29-20.86,26.92-29.71,24-27.84,37.6-56.09,57.1-85.91C78.37,35.42,62.85,65.66,37.53,93.44Z" fill="#1c6e67" fill-rule="evenodd"/></g></g></svg>